<?xml version="1.0" standalone="no"?>
<!DOCTYPE svg PUBLIC "-//W3C//DTD SVG 1.1//EN" "http://www.w3.org/Graphics/SVG/1.1/DTD/svg11.dtd" >
<svg xmlns="http://www.w3.org/2000/svg">
<metadata></metadata>
<defs>
<font id="ticking_timebomb_bbitalic" horiz-adv-x="962" >
<font-face units-per-em="2048" ascent="1536" descent="-512" />
<missing-glyph horiz-adv-x="526" />
<glyph unicode="&#x28;C&#x29;" horiz-adv-x="1568" d="M70 184l59 -86l96 86l82 387l-61 80l-94 -80zM156 78l57 -78h387l96 76l-63 80h-387zM195 776l61 -80l94 80l82 385l-59 86l-97 -86zM406 1270l65 -78h387l90 78l-57 78h-387zM461 475l59 -80l96 80l82 387l-59 86l-96 -86zM543 377l61 -80h387l101 78l-66 78h-387z M670 971l65 -80h387l92 78l-59 78h-387zM758 78l59 -78h387l96 76l-63 80h-387zM1010 1270l98 78h385l59 -78l-92 -78h-385zM1276 184l57 -86l99 86l81 387l-61 80l-94 -80zM1401 776l59 -80l96 80l82 385l-59 86l-96 -86z" />
<glyph unicode="&#x28;R&#x29;" horiz-adv-x="675" d="M223 946l21 -28l32 28l29 133l-20 29l-33 -29zM252 909l20 -26h134l34 26l-22 27h-133zM266 1151l21 -29l32 29l29 133l-20 29l-33 -29zM340 1321l35 27h133l18 -27l-30 -27h-134zM383 981l16 -18l19 18l24 109l-12 18l-22 -18zM418 1135l14 -17l19 17l18 86l-12 20 l-13 14zM436 1114l13 -18h86l24 16l-16 18h-86zM446 1061l74 -94l27 -2l4 26l-76 94l-22 2zM451 1262l14 -17l14 -16h86l21 16l-13 17h-122zM461 909l18 -26h135l33 26l-20 27h-135zM549 1321l20 -27h133l33 27l-20 27h-133zM551 1135l14 -17l21 17l18 86l-14 20l-21 -20z M639 946l20 -28l33 28l29 133l-21 29l-32 -29zM682 1151l20 -29l33 29l29 133l-21 29l-32 -29z" />
<glyph horiz-adv-x="0" />
<glyph unicode="&#xd;" horiz-adv-x="526" />
<glyph horiz-adv-x="0" />
<glyph horiz-adv-x="0" />
<glyph unicode=" "  horiz-adv-x="526" />
<glyph unicode="&#x09;" horiz-adv-x="526" />
<glyph unicode="&#xa0;" horiz-adv-x="526" />
<glyph unicode="!" horiz-adv-x="362" d="M35 0h153l33 156h-153zM117 399l184 871l96 80l62 -80l-185 -871l-96 -86z" />
<glyph unicode="&#x22;" horiz-adv-x="675" d="M178 782l103 488l94 80l61 -80l-102 -488l-96 -86zM496 782l61 -86l94 86l103 488l-60 80l-96 -80z" />
<glyph unicode="#" horiz-adv-x="1488" d="M70 434l96 76l188 -4l-35 -156l-188 4zM180 961l99 75l188 -4l-35 -155l-188 4zM315 84l105 487l94 80l61 -80l-104 -487l-98 -86zM465 780l102 490l95 80l61 -80l-102 -490l-97 -86zM596 434l98 76l189 -4l57 -80l-92 -76l-189 4zM707 961l100 75l188 -4l56 -80l-90 -75 l-189 4zM918 84l104 487l94 80l62 -80l-105 -487l-98 -86zM1067 780l102 490l95 80l61 -80l-102 -490l-97 -86zM1176 354l34 156l191 -4l57 -80l-92 -76zM1288 881l35 155l190 -4l56 -80l-90 -75z" />
<glyph unicode="$" horiz-adv-x="890" d="M35 76l100 80h463l59 -78l-92 -78h-463zM154 776l82 385l96 86l61 -86l-82 -385l-94 -80zM236 672l96 78h385l69 -78l-102 -78h-385zM254 -231l41 194h156l-41 -194l-97 -80zM367 1270l92 78h465l65 -78l-98 -78h-465zM596 1386l43 197l94 78l62 -78l-43 -197h-156z M631 186l82 385l94 80l61 -80l-82 -385l-94 -86z" />
<glyph unicode="%" horiz-adv-x="1929" d="M152 776l81 387l99 86l57 -86l-82 -387l-94 -80zM233 678l97 76h387l69 -78l-102 -78h-387zM365 1272l98 76h387l55 -78l-90 -78h-387zM618 94l306 514l110 45l23 -102l-303 -512l-117 -51zM754 776l82 387l96 86l59 -86l-82 -387l-96 -80zM1040 803l308 508l112 47 l21 -103l-307 -507l-113 -54zM1077 186l82 387l96 78l60 -78l-82 -387l-96 -86zM1163 80l90 76h387l66 -78l-98 -78h-387zM1286 678l94 76h387l70 -78l-102 -78h-387zM1679 186l82 387l94 78l62 -78l-82 -387l-96 -86z" />
<glyph unicode="&#x26;" horiz-adv-x="876" d="M45 186l82 385l94 80l62 -80l-82 -385l-97 -86zM129 78l92 78h461l63 -80l-96 -76h-461zM170 776l82 385l96 86l60 -86l-82 -385l-95 -80zM250 672l102 78h459l63 -78l-96 -78h-459zM274 -231l41 194h156l-41 -194l-96 -80zM381 1270l98 78h459l59 -78l-92 -78h-459z M616 1386l43 197l95 78l61 -78l-43 -197h-156z" />
<glyph unicode="'" horiz-adv-x="370" d="M199 782l102 488l94 80l62 -80l-103 -488l-96 -86z" />
<glyph unicode="(" horiz-adv-x="497" d="M27 84l104 487l94 80l62 -80l-105 -487l-98 -86zM84 -35l115 31l139 -86l16 -109l-118 -26l-140 86zM176 780l103 490l94 80l61 -80l-102 -490l-96 -86zM383 1376l59 107l174 86l107 -29l-61 -108l-177 -86z" />
<glyph unicode=")" horiz-adv-x="516" d="M-78 -199l105 -26l178 86l55 104l-102 31l-174 -86zM209 72l63 -80l93 80l104 489l-59 86l-97 -86zM289 1540l119 29l143 -86l8 -107l-115 -30l-139 86zM358 770l60 -80l96 80l102 490l-57 86l-98 -86z" />
<glyph unicode="*" horiz-adv-x="894" d="M164 1087l119 41l176 -81l20 -103l-112 -41l-177 80zM217 586l6 110l158 168l119 27l-13 -117l-157 -170zM492 1055l47 211l96 84l57 -86l-45 -211l-96 -78zM530 774l39 117l107 -27l86 -168l-41 -110l-105 18zM608 944l68 103l209 81l100 -41l-72 -104l-208 -80z" />
<glyph unicode="+" horiz-adv-x="747" d="M88 676l96 78h162l70 -80l-103 -76h-161zM305 406l35 163l96 86l60 -86l-35 -163l-96 -78zM387 788l35 164l96 86l60 -86l-35 -164l-97 -79zM469 676l96 78h164l70 -80l-103 -76h-164z" />
<glyph unicode="," horiz-adv-x="387" d="M-53 -84l233 352l115 41l16 -104l-237 -352l-115 -46z" />
<glyph unicode="-" horiz-adv-x="630" d="M115 676l96 78h387l68 -80l-103 -76h-387z" />
<glyph unicode="." horiz-adv-x="385" d="M45 0l35 156h156l-35 -156h-156z" />
<glyph unicode="/" horiz-adv-x="665" d="M-25 94l304 514l110 45l23 -102l-303 -512l-115 -51zM395 803l307 508l111 47l23 -103l-308 -507l-114 -54z" />
<glyph unicode="0" horiz-adv-x="956" d="M72 184l82 387l94 80l61 -80l-82 -387l-98 -86zM156 78l92 78h387l63 -80l-96 -76h-387zM197 776l82 385l96 86l59 -86l-82 -385l-96 -80zM408 1270l98 78h385l59 -78l-92 -78h-385zM672 184l82 387l96 80l59 -80l-82 -387l-96 -86zM797 776l82 385l98 86l57 -86 l-82 -385l-94 -80z" />
<glyph unicode="1" horiz-adv-x="391" d="M57 84l105 487l96 80l59 -80l-104 -487l-96 -86zM207 780l102 490l97 80l59 -80l-103 -490l-94 -86z" />
<glyph unicode="2" horiz-adv-x="927" d="M20 18l119 553l94 80l62 -80l-82 -385l-96 -86zM51 0l90 78l92 78h465l64 -80l-96 -76h-615zM264 676l96 78h388l67 -80l-100 -76h-387zM305 1270l98 78h474l59 -78l-92 -78h-473zM784 776l82 385l97 86l59 -86l-82 -385l-96 -80z" />
<glyph unicode="3" horiz-adv-x="894" d="M20 78l93 78h458l64 -80l-96 -76h-459zM143 676l97 78h458l68 -80l-100 -76h-459zM270 1270l99 78h460l58 -78l-90 -78h-461zM610 186l82 385l94 80l62 -80l-82 -385l-98 -86zM735 776l82 385l96 86l60 -86l-82 -385l-96 -80z" />
<glyph unicode="4" horiz-adv-x="923" d="M170 774l59 -80l97 80l104 488l-59 86l-97 -86zM250 676l63 -78h387l103 76l-70 80h-387zM621 74l59 -80l96 80l105 489l-60 86l-96 -86zM770 774l104 488l99 86l57 -86l-104 -488l-95 -80z" />
<glyph unicode="5" horiz-adv-x="933" d="M51 76l101 80h475l57 -78l-90 -78h-475zM182 776l117 553l61 -82l60 -86l-82 -385l-92 -80zM264 672l94 78h387l70 -78l-102 -78h-387zM338 1348h614l66 -78l-98 -78h-467l-58 78zM659 186l82 385l95 80l61 -80l-82 -385l-96 -86z" />
<glyph unicode="6" horiz-adv-x="946" d="M68 186l82 385l94 80l61 -80l-82 -385l-96 -86zM152 78l92 78h387l63 -80l-96 -76h-387zM193 776l81 385l97 86l59 -86l-82 -385l-96 -80zM274 676l97 78h387l67 -80l-100 -76h-387zM403 1270l99 78h450l60 -78l-92 -78h-451zM670 186l82 385l94 80l61 -80l-82 -385 l-98 -86z" />
<glyph unicode="7" horiz-adv-x="837" d="M236 1270l98 78h606l-102 -78l-93 -78h-444zM541 90l102 481l94 80l62 -80l-103 -481l-98 -86zM686 776l82 385l96 86l92 72l-114 -543l-97 -80z" />
<glyph unicode="8" horiz-adv-x="954" d="M66 186l81 385l97 80l59 -80l-82 -385l-96 -86zM152 78l92 78h385l63 -80l-96 -76h-385zM190 776l82 385l99 86l57 -86l-82 -385l-94 -80zM274 676l97 78h385l67 -80l-100 -76h-385zM401 1270l99 78h387l59 -78l-92 -78h-387zM668 186l82 385l96 80l59 -80l-82 -385 l-96 -86zM793 776l81 385l99 86l57 -86l-82 -385l-94 -80z" />
<glyph unicode="9" horiz-adv-x="919" d="M68 78l92 78h452l64 -80l-96 -76h-453zM174 776l82 385l96 86l60 -86l-82 -385l-97 -80zM254 672l100 78h387l64 -78l-96 -78h-387zM383 1270l98 78h387l60 -78l-92 -78h-387zM649 184l82 387l96 80l60 -80l-82 -387l-96 -84zM774 776l82 385l98 86l58 -86l-82 -385 l-94 -80z" />
<glyph unicode=":" horiz-adv-x="370" d="M109 352l32 154h156l-33 -154h-155zM213 844l33 155h155l-32 -155h-156z" />
<glyph unicode=";" horiz-adv-x="413" d="M-70 -84l236 352l113 41l16 -104l-236 -352l-116 -46zM193 442l32 156h156l-33 -156h-155z" />
<glyph unicode="&#x3c;" horiz-adv-x="565" d="M98 537l213 -506l103 -33l45 115l-211 508l-101 26zM154 698l4 115l428 506l110 27l2 -109l-428 -508z" />
<glyph unicode="=" horiz-adv-x="659" d="M98 526l97 78h385l69 -80l-102 -78h-385zM164 836l96 75h385l70 -77l-103 -78h-385z" />
<glyph unicode="&#x3e;" horiz-adv-x="569" d="M8 -2l115 27l428 507l2 115l-119 -33l-426 -505v-111zM246 1231l45 115l106 -31l211 -508l-47 -109l-102 27z" />
<glyph unicode="?" horiz-adv-x="899" d="M4 0l33 156h153l-32 -156h-154zM88 403l37 168l94 80l62 -80l-37 -168l-99 -86zM250 676l96 78h387l68 -80l-101 -76h-387zM283 1270l98 78h481l60 -78l-93 -78h-481zM768 776l82 385l98 86l58 -86l-82 -385l-95 -80z" />
<glyph unicode="@" horiz-adv-x="1568" d="M70 184l82 387l96 80l59 -80l-82 -387l-96 -86zM156 78l90 78h387l63 -80l-96 -76h-387zM195 776l81 385l99 86l57 -86l-82 -385l-94 -80zM406 1270l98 78h387l57 -78l-90 -78h-387zM436 475l82 387l98 86l58 -86l-82 -387l-94 -80zM520 377l96 76h385l68 -78l-102 -78 h-385zM647 971l98 76h388l59 -78l-92 -78h-387zM971 182l20 94l96 82l60 -82l-21 -94l-92 -76zM1010 1270l98 78h387l57 -78l-90 -78h-387zM1038 475l82 387l97 86l59 -86l-82 -387l-94 -80zM1051 78l92 78h94l63 -80l-96 -76h-94zM1276 184l82 387l94 80l61 -80l-81 -387 l-99 -86zM1401 776l82 385l96 86l59 -86l-82 -385l-96 -80z" />
<glyph unicode="A" horiz-adv-x="956" d="M53 84l105 489l96 78l59 -78l-104 -489l-96 -86zM201 776l82 387l98 86l57 -86l-82 -387l-94 -80zM285 678l96 76h385l70 -78l-103 -78h-385zM414 1272l98 76h387l57 -78l-92 -78h-387zM655 84l105 489l94 78l61 -78l-104 -489l-96 -86zM803 776l82 387l96 86l59 -86 l-82 -387l-94 -80z" />
<glyph unicode="B" horiz-adv-x="958" d="M33 20l117 553l96 78l59 -78l-82 -387zM61 0l183 156h387l65 -78l-98 -78h-537zM193 776l114 543l123 -156l-82 -387l-94 -80zM276 678l95 76h387l69 -78l-102 -78h-387zM336 1348h553l57 -78l-90 -78h-387zM670 186l82 387l94 78l61 -78l-82 -387l-96 -86zM795 776 l82 387l96 86l59 -86l-82 -387l-94 -80z" />
<glyph unicode="C" horiz-adv-x="950" d="M76 186l82 387l94 78l61 -78l-82 -387l-98 -86zM160 80l92 76h463l65 -78l-98 -78h-463zM201 776l82 387l96 86l59 -86l-82 -387l-96 -80zM412 1272l96 76h387l59 -78l-92 -78h-387zM801 776l82 387l98 86l57 -86l-82 -387l-94 -80z" />
<glyph unicode="D" horiz-adv-x="974" d="M47 20l117 553l94 78l61 -78l-81 -387zM76 0l182 156h387l66 -78l-99 -78h-536zM207 776l115 543l122 -156l-82 -387l-96 -80zM350 1348h551l60 -78l-93 -78h-385zM684 186l82 387l94 78l62 -78l-82 -387l-99 -86zM809 776l82 387l96 86l60 -86l-82 -387l-97 -80z" />
<glyph unicode="E" horiz-adv-x="860" d="M47 20l117 553l96 78l59 -78l-81 -387zM76 0l184 156h385l66 -78l-99 -78h-536zM207 776l115 543l122 -156l-82 -387l-94 -80zM291 678l96 76h385l70 -78l-103 -78h-385zM350 1348h553l60 -78l-93 -78h-387z" />
<glyph unicode="F" horiz-adv-x="827" d="M68 84l104 489l94 78l62 -78l-105 -489l-98 -86zM215 776l117 543l121 -156l-82 -387l-97 -80zM297 678l96 76h385l70 -78l-103 -78h-385zM358 1348h553l58 -78l-92 -78h-388z" />
<glyph unicode="G" horiz-adv-x="956" d="M76 186l82 387l92 78l63 -78l-82 -387l-96 -86zM160 78l98 78h385l59 -76l-92 -80h-385zM201 776l82 387l94 86l61 -86l-82 -387l-94 -80zM412 1270l92 78h463l67 -76l-100 -80h-463zM678 186l82 387l92 78l63 -78l-81 -387l-97 -86z" />
<glyph unicode="H" horiz-adv-x="964" d="M51 84l105 489l94 78l61 -78l-104 -489l-96 -86zM201 782l102 488l94 80l62 -80l-103 -488l-96 -86zM281 678l96 76h387l70 -78l-103 -78h-387zM653 84l105 489l94 78l61 -78l-104 -489l-98 -86zM803 782l102 488l94 80l62 -80l-103 -488l-96 -86z" />
<glyph unicode="I" horiz-adv-x="378" d="M57 84l105 487l96 80l59 -80l-104 -487l-96 -86zM207 780l102 490l97 80l59 -80l-103 -490l-94 -86z" />
<glyph unicode="J" horiz-adv-x="944" d="M47 184l82 387l96 80l60 -80l-82 -387l-97 -86zM133 78l92 78h385l64 -80l-96 -76h-385zM649 184l82 387l96 80l60 -80l-82 -387l-96 -86zM780 780l103 490l94 80l61 -80l-102 -490l-96 -86z" />
<glyph unicode="K" horiz-adv-x="933" d="M51 84l105 487l96 80l61 -80l-104 -487l-98 -86zM199 780l104 490l96 80l62 -80l-105 -490l-96 -86zM377 549l33 115l110 -21l299 -530l-35 -109l-108 14zM414 690l14 115l520 532l115 19l-8 -111l-523 -532z" />
<glyph unicode="L" horiz-adv-x="794" d="M35 20l117 551l94 80l61 -80l-82 -387zM63 0l185 156h385l63 -80l-96 -76h-537zM197 780l102 490l94 80l62 -80l-103 -490l-96 -86z" />
<glyph unicode="M" horiz-adv-x="956" d="M45 84l105 487l94 80l61 -80l-104 -487l-99 -86zM190 776l82 385l99 86l57 -86l-82 -385l-94 -80zM401 1270l101 78h387l55 -78l-90 -78h-387zM487 758l82 387h156l-82 -387l-94 -80zM645 84l105 487l96 80l59 -80l-104 -487l-96 -86zM793 776l81 385l97 86l59 -86 l-82 -385l-94 -80z" />
<glyph unicode="N" horiz-adv-x="964" d="M47 84l105 487l94 80l61 -80l-104 -487l-97 -86zM197 780l102 490l94 80l62 -80l-103 -490l-96 -86zM465 1174l59 106l94 -39l130 -498l-60 -112l-96 45zM649 84l105 487l94 80l61 -80l-104 -487l-98 -86zM799 780l102 490l94 80l62 -80l-103 -490l-96 -86z" />
<glyph unicode="O" horiz-adv-x="948" d="M63 184l82 387l95 80l61 -80l-82 -387l-98 -86zM147 78l93 78h387l63 -80l-96 -76h-387zM188 776l82 385l97 86l59 -86l-82 -385l-96 -80zM399 1270l99 78h385l59 -78l-92 -78h-385zM664 184l81 387l97 80l59 -80l-82 -387l-96 -86zM788 776l82 385l99 86l57 -86 l-82 -385l-94 -80z" />
<glyph unicode="P" horiz-adv-x="933" d="M55 84l105 487l94 80l61 -80l-104 -487l-98 -86zM203 776l114 541l66 -70l57 -86l-82 -385l-94 -80zM287 676l96 78h385l70 -80l-103 -76h-385zM348 1348h553l57 -78l-92 -78h-387l-65 78zM805 776l82 385l98 86l57 -86l-81 -385l-95 -80z" />
<glyph unicode="Q" horiz-adv-x="946" d="M61 184l82 387l95 80l61 -80l-82 -387l-98 -86zM145 78l93 78h387l63 -80l-96 -76h-387zM186 776l82 385l97 86l59 -86l-82 -385l-96 -80zM365 201l84 387l94 80l61 -80l-84 -387h-155zM397 1270l99 78h385l59 -78l-92 -78h-385zM662 184l81 387l97 80l59 -80l-82 -387 l-96 -86zM786 776l82 385l99 86l57 -86l-82 -385l-94 -80z" />
<glyph unicode="R" horiz-adv-x="952" d="M41 84l104 487l97 80l61 -80l-104 -487l-99 -86zM190 776l115 541l123 -156l-82 -385l-94 -80zM274 676l97 78h385l69 -80l-102 -76h-385zM317 442l23 113l111 -2l340 -428l-23 -117l-113 8zM336 1348h553l57 -78l-92 -78h-387zM793 776l81 385l97 86l59 -86l-82 -385 l-94 -80z" />
<glyph unicode="S" horiz-adv-x="907" d="M47 76l100 80h463l60 -78l-92 -78h-463zM166 776l82 385l96 86l59 -86l-81 -385l-93 -80zM248 670l96 80h385l70 -78l-103 -78h-385zM379 1270l92 78h465l65 -78l-98 -78h-465zM643 184l82 387l94 80l62 -80l-82 -387l-94 -86z" />
<glyph unicode="T" horiz-adv-x="794" d="M217 1274l96 80h590l70 -78l-103 -78h-589zM254 84l104 487l97 80l59 -80l-104 -487l-97 -86zM399 766l82 387h156l-82 -387l-92 -80z" />
<glyph unicode="U" d="M68 182l82 387l96 80l59 -80l-82 -387l-96 -86zM154 76l92 78h385l63 -80l-98 -76h-385zM197 772l104 490l96 86l60 -86l-105 -490l-96 -78zM670 182l82 387l96 80l59 -80l-82 -387l-96 -86zM799 772l104 490l96 86l60 -86l-105 -490l-96 -78z" />
<glyph unicode="V" horiz-adv-x="937" d="M43 84l104 487l95 80l61 -80l-104 -487l-99 -86zM190 772l105 490l98 86l58 -86l-105 -490l-94 -78zM244 94l26 115l488 428l112 4l-20 -111l-488 -426zM793 772l104 490l98 86l58 -86l-105 -490l-94 -78z" />
<glyph unicode="W" horiz-adv-x="958" d="M70 182l82 387l94 80l61 -80l-82 -387l-98 -86zM154 76l92 78h387l63 -80l-98 -76h-387zM193 774l104 488l98 86l58 -86l-105 -488l-94 -80zM371 201l84 387l96 80l59 -80l-84 -387h-155zM670 182l82 387l96 80l59 -80l-82 -387l-96 -86zM795 774l104 488l98 86l58 -86 l-105 -488l-94 -80z" />
<glyph unicode="X" horiz-adv-x="866" d="M18 102l23 -102l115 51l295 508l-25 98l-111 -47zM264 1257l68 99l90 -47l82 -500l-66 -102l-92 53zM524 553l80 -506l90 -47l70 98l-82 506l-90 53zM578 805l26 -98l109 47l295 499l-23 103l-113 -53z" />
<glyph unicode="Y" horiz-adv-x="931" d="M72 78l59 -78h451l96 76l-64 80h-450zM178 774l62 -80l94 80l102 488l-59 86l-96 -86zM260 676l62 -78h387l100 76l-68 80h-387zM653 186l60 -86l96 86l82 385l-62 80l-94 -80zM780 774l103 488l96 86l59 -86l-102 -488l-96 -80z" />
<glyph unicode="Z" horiz-adv-x="845" d="M-8 78l59 -78h588l104 78l-69 78h-588zM100 307l6 -112l117 38l240 320l-8 106l-115 -32zM244 1276l96 78h588l69 -78l-102 -78h-588zM471 803l4 -111l117 39l239 320l-6 106l-114 -35z" />
<glyph unicode="[" horiz-adv-x="708" d="M31 84l59 -86l96 86l105 487l-62 80l-94 -80zM100 -78l64 -78h319l103 76l-68 80h-319zM180 780l60 -86l96 86l102 490l-59 80l-96 -80zM420 1425l98 78h320l67 -80l-102 -75h-320z" />
<glyph unicode="\" horiz-adv-x="679" d="M229 1255l68 103l90 -47l90 -508l-63 -109l-92 54zM354 551l64 102l94 -45l86 -514l-63 -106l-93 51z" />
<glyph unicode="]" horiz-adv-x="745" d="M-45 -78l68 -78h319l96 76l-61 80h-320zM272 1425l105 78h319l62 -80l-96 -75h-320zM422 78l61 -80l95 80l102 487l-59 86l-97 -86zM569 776l62 -80l94 80l104 488l-57 86l-98 -86z" />
<glyph unicode="^" horiz-adv-x="882" d="M215 1028l33 113l278 207l107 -11l-27 -106l-280 -207zM643 1231l193 -211l116 6l13 111l-193 211l-110 -11z" />
<glyph unicode="_" horiz-adv-x="923" d="M-10 78l92 78h678l63 -80l-98 -76h-678z" />
<glyph unicode="`" horiz-adv-x="507" d="M244 1227l10 112l115 7l241 -252l-18 -109l-107 -8z" />
<glyph unicode="a" horiz-adv-x="974" d="M53 84l105 489l96 78l59 -78l-104 -489l-96 -86zM201 776l82 387l98 86l57 -86l-82 -387l-94 -80zM285 678l96 76h385l70 -78l-103 -78h-385zM414 1272l98 76h387l57 -78l-92 -78h-387zM655 84l105 489l94 78l61 -78l-104 -489l-96 -86zM803 776l82 387l96 86l59 -86 l-82 -387l-94 -80z" />
<glyph unicode="b" d="M33 20l117 553l96 78l59 -78l-82 -387zM61 0l183 156h387l65 -78l-98 -78h-537zM193 776l114 543l123 -156l-82 -387l-94 -80zM276 678l95 76h387l69 -78l-102 -78h-387zM336 1348h553l57 -78l-90 -78h-387zM670 186l82 387l94 78l61 -78l-82 -387l-96 -86zM795 776 l82 387l96 86l59 -86l-82 -387l-94 -80z" />
<glyph unicode="c" horiz-adv-x="954" d="M76 186l82 387l94 78l61 -78l-82 -387l-98 -86zM160 80l92 76h463l65 -78l-98 -78h-463zM201 776l82 387l96 86l59 -86l-82 -387l-96 -80zM412 1272l96 76h387l59 -78l-92 -78h-387zM801 776l82 387l98 86l57 -86l-82 -387l-94 -80z" />
<glyph unicode="d" horiz-adv-x="980" d="M47 20l117 553l94 78l61 -78l-81 -387zM76 0l182 156h387l66 -78l-99 -78h-536zM207 776l115 543l122 -156l-82 -387l-96 -80zM350 1348h551l60 -78l-93 -78h-385zM684 186l82 387l94 78l62 -78l-82 -387l-99 -86zM809 776l82 387l96 86l60 -86l-82 -387l-97 -80z" />
<glyph unicode="e" horiz-adv-x="849" d="M47 20l117 553l96 78l59 -78l-81 -387zM76 0l184 156h385l66 -78l-99 -78h-536zM207 776l115 543l122 -156l-82 -387l-94 -80zM291 678l96 76h385l70 -78l-103 -78h-385zM350 1348h553l60 -78l-93 -78h-387z" />
<glyph unicode="f" horiz-adv-x="841" d="M68 84l104 489l94 78l62 -78l-105 -489l-98 -86zM215 776l117 543l121 -156l-82 -387l-97 -80zM297 678l96 76h385l70 -78l-103 -78h-385zM358 1348h553l58 -78l-92 -78h-388z" />
<glyph unicode="g" horiz-adv-x="950" d="M76 186l82 387l92 78l63 -78l-82 -387l-96 -86zM160 78l98 78h385l59 -76l-92 -80h-385zM201 776l82 387l94 86l61 -86l-82 -387l-94 -80zM412 1270l92 78h463l67 -76l-100 -80h-463zM678 186l82 387l92 78l63 -78l-81 -387l-97 -86z" />
<glyph unicode="h" horiz-adv-x="974" d="M51 84l105 489l94 78l61 -78l-104 -489l-96 -86zM201 782l102 488l94 80l62 -80l-103 -488l-96 -86zM281 678l96 76h387l70 -78l-103 -78h-387zM653 84l105 489l94 78l61 -78l-104 -489l-98 -86zM803 782l102 488l94 80l62 -80l-103 -488l-96 -86z" />
<glyph unicode="i" horiz-adv-x="389" d="M57 84l105 487l96 80l59 -80l-104 -487l-96 -86zM207 780l102 490l97 80l59 -80l-103 -490l-94 -86z" />
<glyph unicode="j" horiz-adv-x="942" d="M47 184l82 387l96 80l60 -80l-82 -387l-97 -86zM133 78l92 78h385l64 -80l-96 -76h-385zM649 184l82 387l96 80l60 -80l-82 -387l-96 -86zM780 780l103 490l94 80l61 -80l-102 -490l-96 -86z" />
<glyph unicode="k" horiz-adv-x="927" d="M51 84l105 487l96 80l61 -80l-104 -487l-98 -86zM199 780l104 490l96 80l62 -80l-105 -490l-96 -86zM377 549l33 115l110 -21l299 -530l-35 -109l-108 14zM414 690l14 115l520 532l115 19l-8 -111l-523 -532z" />
<glyph unicode="l" horiz-adv-x="796" d="M35 20l117 551l94 80l61 -80l-82 -387zM63 0l185 156h385l63 -80l-96 -76h-537zM197 780l102 490l94 80l62 -80l-103 -490l-96 -86z" />
<glyph unicode="m" d="M45 84l105 487l94 80l61 -80l-104 -487l-99 -86zM190 776l82 385l99 86l57 -86l-82 -385l-94 -80zM401 1270l101 78h387l55 -78l-90 -78h-387zM487 758l82 387h156l-82 -387l-94 -80zM645 84l105 487l96 80l59 -80l-104 -487l-96 -86zM793 776l81 385l97 86l59 -86 l-82 -385l-94 -80z" />
<glyph unicode="n" horiz-adv-x="966" d="M47 84l105 487l94 80l61 -80l-104 -487l-97 -86zM197 780l102 490l94 80l62 -80l-103 -490l-96 -86zM465 1174l59 106l94 -39l130 -498l-60 -112l-96 45zM649 84l105 487l94 80l61 -80l-104 -487l-98 -86zM799 780l102 490l94 80l62 -80l-103 -490l-96 -86z" />
<glyph unicode="o" d="M63 184l82 387l95 80l61 -80l-82 -387l-98 -86zM147 78l93 78h387l63 -80l-96 -76h-387zM188 776l82 385l97 86l59 -86l-82 -385l-96 -80zM399 1270l99 78h385l59 -78l-92 -78h-385zM664 184l81 387l97 80l59 -80l-82 -387l-96 -86zM788 776l82 385l99 86l57 -86 l-82 -385l-94 -80z" />
<glyph unicode="p" horiz-adv-x="925" d="M55 84l105 487l94 80l61 -80l-104 -487l-98 -86zM203 776l114 541l66 -70l57 -86l-82 -385l-94 -80zM287 676l96 78h385l70 -80l-103 -76h-385zM348 1348h553l57 -78l-92 -78h-387l-65 78zM805 776l82 385l98 86l57 -86l-81 -385l-95 -80z" />
<glyph unicode="q" horiz-adv-x="944" d="M61 184l82 387l95 80l61 -80l-82 -387l-98 -86zM145 78l93 78h387l63 -80l-96 -76h-387zM186 776l82 385l97 86l59 -86l-82 -385l-96 -80zM365 201l84 387l94 80l61 -80l-84 -387h-155zM397 1270l99 78h385l59 -78l-92 -78h-385zM662 184l81 387l97 80l59 -80l-82 -387 l-96 -86zM786 776l82 385l99 86l57 -86l-82 -385l-94 -80z" />
<glyph unicode="r" horiz-adv-x="927" d="M41 84l104 487l97 80l61 -80l-104 -487l-99 -86zM190 776l115 541l123 -156l-82 -385l-94 -80zM274 676l97 78h385l69 -80l-102 -76h-385zM317 442l23 113l111 -2l340 -428l-23 -117l-113 8zM336 1348h553l57 -78l-92 -78h-387zM793 776l81 385l97 86l59 -86l-82 -385 l-94 -80z" />
<glyph unicode="s" horiz-adv-x="913" d="M47 76l100 80h463l60 -78l-92 -78h-463zM166 776l82 385l96 86l59 -86l-81 -385l-93 -80zM248 670l96 80h385l70 -78l-103 -78h-385zM379 1270l92 78h465l65 -78l-98 -78h-465zM643 184l82 387l94 80l62 -80l-82 -387l-94 -86z" />
<glyph unicode="t" horiz-adv-x="794" d="M217 1274l96 80h590l70 -78l-103 -78h-589zM254 84l104 487l97 80l59 -80l-104 -487l-97 -86zM399 766l82 387h156l-82 -387l-92 -80z" />
<glyph unicode="u" d="M68 182l82 387l96 80l59 -80l-82 -387l-96 -86zM154 76l92 78h385l63 -80l-98 -76h-385zM197 772l104 490l96 86l60 -86l-105 -490l-96 -78zM670 182l82 387l96 80l59 -80l-82 -387l-96 -86zM799 772l104 490l96 86l60 -86l-105 -490l-96 -78z" />
<glyph unicode="v" horiz-adv-x="927" d="M43 84l104 487l95 80l61 -80l-104 -487l-99 -86zM190 772l105 490l98 86l58 -86l-105 -490l-94 -78zM244 94l26 115l488 428l112 4l-20 -111l-488 -426zM793 772l104 490l98 86l58 -86l-105 -490l-94 -78z" />
<glyph unicode="w" horiz-adv-x="972" d="M70 182l82 387l94 80l61 -80l-82 -387l-98 -86zM154 76l92 78h387l63 -80l-98 -76h-387zM193 774l104 488l98 86l58 -86l-105 -488l-94 -80zM371 201l84 387l96 80l59 -80l-84 -387h-155zM670 182l82 387l96 80l59 -80l-82 -387l-96 -86zM795 774l104 488l98 86l58 -86 l-105 -488l-94 -80z" />
<glyph unicode="x" horiz-adv-x="884" d="M18 102l23 -102l115 51l295 508l-25 98l-111 -47zM264 1257l68 99l90 -47l82 -500l-66 -102l-92 53zM524 553l80 -506l90 -47l70 98l-82 506l-90 53zM578 805l26 -98l109 47l295 499l-23 103l-113 -53z" />
<glyph unicode="y" horiz-adv-x="933" d="M72 78l59 -78h451l96 76l-64 80h-450zM178 774l62 -80l94 80l102 488l-59 86l-96 -86zM260 676l62 -78h387l100 76l-68 80h-387zM653 186l60 -86l96 86l82 385l-62 80l-94 -80zM780 774l103 488l96 86l59 -86l-102 -488l-96 -80z" />
<glyph unicode="z" horiz-adv-x="847" d="M-8 78l59 -78h588l104 78l-69 78h-588zM100 307l6 -112l117 38l240 320l-8 106l-115 -32zM244 1276l96 78h588l69 -78l-102 -78h-588zM471 803l4 -111l117 39l239 320l-6 106l-114 -35z" />
<glyph unicode="{" horiz-adv-x="454" d="M10 119l25 -105l115 58l249 463l-24 100l-113 -51zM23 -35l10 -104l141 -86l119 26l-17 109l-141 86zM244 1221l55 -465l88 -58l70 107l-54 465l-88 51zM322 1376l57 107l176 86l107 -29l-62 -108l-178 -86z" />
<glyph unicode="|" horiz-adv-x="843" d="M-23 78l101 78h590l63 -76l-98 -80h-590zM244 1274l96 80h590l69 -78l-102 -78h-590zM309 201l82 387l94 80l62 -80l-82 -387h-156zM426 766l82 387h156l-82 -387l-93 -80z" />
<glyph unicode="}" horiz-adv-x="462" d="M-59 -199l59 109l176 86l103 -31l-58 -104l-176 -86zM143 537l68 106l90 -57l53 -465l-67 -98l-90 51zM201 807l252 465l114 57l23 -106l-252 -465l-111 -51zM307 1540l119 29l141 -86l11 -107l-115 -30l-139 86z" />
<glyph unicode="~" horiz-adv-x="1048" d="M68 403l24 111l182 145l117 5l-31 -115l-182 -146h-110zM414 676l96 78h180l70 -80l-103 -76h-180zM791 674l26 112l180 146l119 4l-33 -117l-180 -145h-112z" />
<glyph unicode="&#xa2;" horiz-adv-x="788" d="M98 465l82 387l96 78l60 -78l-82 -387l-96 -86zM184 358l90 76h388l65 -78l-98 -77h-387zM303 41l41 195h156l-41 -195l-97 -80zM307 956l94 76h387l70 -78l-102 -77h-387zM522 1073l41 195l94 80l62 -80l-41 -195h-156z" />
<glyph unicode="&#xad;" horiz-adv-x="630" d="M115 676l96 78h387l68 -80l-103 -76h-387z" />
<glyph unicode="&#xd7;" horiz-adv-x="690" d="M106 395l25 111l139 115l119 4l-33 -115l-137 -113zM186 784l21 117l115 -6l92 -117l-25 -112l-110 2zM401 514l19 115l115 -4l92 -117l-27 -111h-108zM434 664l23 112l141 115l119 4l-31 -113l-141 -116z" />
<glyph unicode="&#x2000;" horiz-adv-x="830" />
<glyph unicode="&#x2001;" horiz-adv-x="1661" />
<glyph unicode="&#x2002;" horiz-adv-x="830" />
<glyph unicode="&#x2003;" horiz-adv-x="1661" />
<glyph unicode="&#x2004;" horiz-adv-x="553" />
<glyph unicode="&#x2005;" horiz-adv-x="415" />
<glyph unicode="&#x2006;" horiz-adv-x="276" />
<glyph unicode="&#x2007;" horiz-adv-x="276" />
<glyph unicode="&#x2008;" horiz-adv-x="207" />
<glyph unicode="&#x2009;" horiz-adv-x="332" />
<glyph unicode="&#x200a;" horiz-adv-x="92" />
<glyph unicode="&#x2010;" horiz-adv-x="630" d="M115 676l96 78h387l68 -80l-103 -76h-387z" />
<glyph unicode="&#x2011;" horiz-adv-x="630" d="M115 676l96 78h387l68 -80l-103 -76h-387z" />
<glyph unicode="&#x2012;" horiz-adv-x="630" d="M115 676l96 78h387l68 -80l-103 -76h-387z" />
<glyph unicode="&#x2013;" horiz-adv-x="1009" d="M115 676l96 78h752l67 -80l-102 -76h-752z" />
<glyph unicode="&#x2014;" horiz-adv-x="1249" d="M115 676l96 78h989l68 -80l-103 -76h-989z" />
<glyph unicode="&#x2018;" horiz-adv-x="372" d="M197 782l102 488l94 80l62 -80l-103 -488l-96 -86z" />
<glyph unicode="&#x2019;" horiz-adv-x="364" d="M197 782l102 488l94 80l62 -80l-103 -488l-96 -86z" />
<glyph unicode="&#x201c;" horiz-adv-x="700" d="M188 782l103 488l94 80l61 -80l-102 -488l-96 -86zM506 782l61 -86l95 86l102 488l-59 80l-97 -80z" />
<glyph unicode="&#x201d;" horiz-adv-x="690" d="M197 782l102 488l94 80l62 -80l-103 -488l-96 -86zM514 782l61 -86l95 86l102 488l-59 80l-97 -80z" />
<glyph unicode="&#x2022;" horiz-adv-x="395" d="M170 586l33 155h155l-32 -155h-156z" />
<glyph unicode="&#x2026;" horiz-adv-x="942" d="M27 2l32 154h156l-33 -154h-155zM315 2h154l33 154h-154zM602 2h156l33 154h-156z" />
<glyph unicode="&#x202f;" horiz-adv-x="332" />
<glyph unicode="&#x205f;" horiz-adv-x="415" />
<glyph unicode="&#x2122;" horiz-adv-x="714" d="M283 1327l34 27h203l23 -27l-35 -27h-203zM295 915l20 -28l33 28l37 168l-20 29l-33 -29zM346 1151l21 -27l32 27l29 133h-53zM485 915l21 -28l33 28l36 168l-20 29l-33 -29zM537 1155l20 -29l33 29l28 133l-20 29l-33 -29zM608 1325l23 -27h133l33 27l-21 27h-133z M639 1149l20 -29l33 29l27 133h-53zM692 915l21 -28l32 28l37 168l-20 29l-33 -29zM743 1155l21 -29l33 29l28 133l-20 29l-33 -29z" />
<glyph unicode="&#x25fc;" horiz-adv-x="1351" d="M0 0v1352h1352v-1352h-1352z" />
</font>
</defs>
</svg>
